# AST/ASF file generated using VICON BodyLanguage
# -----------------------------------------------
:version 1.10
:name VICON
:units
  mass 1.0
  length 0.45
  angle deg
:documentation
   .ast/.asf automatically generated from VICON data using
   VICON BodyBuilder and BodyLanguage model FoxedUp or BRILLIANT.MOD
:root
   order TX TY TZ RX RY RZ
   axis XYZ
   position 0 0 0  
   orientation 0 0 0 
:bonedata
  begin
     id 1 
     name lhipjoint
     direction 0.78388 -0.462562 0.414208 
     length 3.01181 
     axis 0 0 0  XYZ
  end
  begin
     id 2 
     name lfemur
     direction 0.34202 -0.939693 0  
     length 6.04673  
     axis 0 0 20  XYZ
    dof rx ry rz
    limits (-160.0 20.0)
           (-70.0 70.0)
           (-60.0 70.0)
  end
  begin
     id 3 
     name ltibia
     direction 0.34202 -0.939693 0   
     length 7.211   
     axis 0 0 20   XYZ
    dof rx
    limits (-10.0 170.0)
  end
  begin
     id 4 
     name lfoot
     direction 0.121887 -0.334882 0.934344   
     length 2.13567   
     axis -90 7.62852e-016 20   XYZ
    dof rx rz
    limits (-45.0 90.0)
           (-70.0 20.0)
  end
  begin
     id 5 
     name ltoes
     direction 1.53555e-011 -4.2179e-011 1   
     length 1.05957   
     axis -90 7.62852e-016 20   XYZ
    dof rx
    limits (-90.0 20.0)
  end
  begin
     id 6 
     name rhipjoint
     direction -0.769387 -0.475875 0.426129   
     length 2.92756  
     axis 0 0 0  XYZ 
  end
  begin
     id 7 
     name rfemur
     direction -0.34202 -0.939693 0   
     length 6.35468   
     axis 0 0 -20   XYZ
    dof rx ry rz
    limits (-160.0 20.0)
           (-70.0 70.0)
           (-70.0 60.0)
  end
  begin
     id 8 
     name rtibia
     direction -0.34202 -0.939693 0   
     length 7.37886   
     axis 0 0 -20   XYZ
    dof rx
    limits (-10.0 170.0)
 end
 begin
     id 9 
     name rfoot
     direction -0.101763 -0.279592 0.954711   
     length 2.21478  
     axis -90 -7.62852e-016 -20   XYZ
    dof rx rz
    limits (-45.0 90.0)
           (-20.0 70.0)
  end
  begin
     id 10 
     name rtoes
     direction -1.53494e-011 -4.21851e-011 1   
     length 1.10506   
     axis -90 -7.62852e-016 -20   XYZ
    dof rx
    limits (-90.0 20.0)
  end
  begin
     id 11 
     name lowerback
     direction 0.00747405 0.999267 0.0375481   
     length 2.13259   
     axis 0 0 0   XYZ
    dof rx ry rz
    limits (-20.0 45.0)
           (-30.0 30.0)
           (-30.0 30.0)
  end
  begin
     id 12 
     name upperback
     direction 0.00661626 0.996177 0.0871029   
     length 2.10528   
     axis 0 0 0   XYZ
    dof rx ry rz
    limits (-20.0 45.0)
           (-30.0 30.0)
           (-30.0 30.0)
  end
  begin
     id 13 
     name thorax
     direction 0.00320659 0.997679 0.0680167   
     length 2.11338   
     axis 0 0 0   XYZ
    dof rx ry rz
    limits (-20.0 45.0)
           (-30.0 30.0)
           (-30.0 30.0)
  end
  begin
     id 14 
     name lowerneck
     direction 0.0374841 0.973033 0.227602   
     length 1.42765   
     axis 0 0 0   XYZ
    dof rx ry rz
    limits (-20.0 45.0)
           (-30.0 30.0)
           (-30.0 30.0)
  end
  begin
     id 15 
     name upperneck
     direction 0.00481585 0.989155 -0.146795   
     length 1.47593   
     axis 0 0 0   XYZ
    dof rx ry rz
    limits (-20.0 45.0)
           (-30.0 30.0)
           (-30.0 30.0)
  end
  begin
     id 16
     name head
     direction -0.00292522 0.997206 -0.0746423  
     length 1.48116  
     axis 0 0 0   XYZ
    dof rx ry rz
    limits (-20.0 45.0)
           (-30.0 30.0)
           (-30.0 30.0)
  end
  begin
     id 17 
     name lclavicle
     direction 0.951444 0.305606 0.0368784  
     length 3.01855  
     axis 0 0 0   XYZ
    dof ry rz
    limits (-20.0 10.0)
           (0.0 20.0)
  end
  begin
     id 18 
     name lhumerus
     direction 1 -4.48977e-011 2.61664e-027   
     length 5.52731   
     axis 180 -30 -90   XYZ
    dof rx ry rz
    limits (-60.0 90.0)
           (-90.0 90.0)
           (-90.0 90.0)
  end
  begin
     id 19
     name lradius
     direction 1 -4.48944e-011 8.22157e-027   
     length 3.11059   
     axis 180 -30 -90   XYZ
    dof rx
    limits (-10.0 170.0)
  end
  begin
     id 20
     name lwrist
     direction 1 -4.48976e-011 1.5779e-026   
     length 1.5553   
     axis -1.15221e-014 90 90   XYZ
    dof ry
    limits (-180.0 0.0)
 end
  begin
     id 21 
     name lhand
     direction 1 -4.49025e-011 3.1558e-026   
     length 0.419626   
     axis -2.01367e-014 90 90   XYZ
    dof rx rz
    limits (-90.0 90.0)
           (-45.0 45.0)
  end
  begin
     id 22 
     name lfingers
     direction 1 -4.4904e-011 6.31161e-026   
     length 0.338313   
     axis -4.02734e-014 90 90   XYZ
    dof rx
    limits (0.0 90.0)
  end
  begin
     id 23
     name lthumb
     direction 0.707107 -6.35004e-011 0.707107   
     length 0.485752   
     axis -90 45 2.85299e-015   XYZ
    dof rx rz
    limits (-45.0 45.0)
           (-45.0 45.0)
  end
  begin
     id 24 
     name rclavicle
     direction -0.968876 0.223791 0.105816   
     length 3.04177  
     axis 0 0 0   XYZ 
    dof ry rz
    limits (-10.0 20.0)
           (-20.0 0.0)
  end
  begin
     id 25 
     name rhumerus
     direction -1 -4.48962e-011 -1.01384e-027  
     length 5.25396   
     axis 180 30 90   XYZ
    dof rx ry rz
    limits (-90.0 60.0)
           (-90.0 90.0)
           (-90.0 90.0)
  end
  begin
     id 26 
     name rradius
     direction -1 -4.48955e-011 8.88542e-027   
     length 3.10567   
     axis 180 30 90   XYZ
    dof rx
    limits (-10.0 170.0)
  end
  begin
     id 27 
     name rwrist
     direction -1 -4.48994e-011 1.5779e-026   
     length 1.55283   
     axis -1.15221e-014 -90 -90   XYZ
    dof ry
    limits (-180.0 0.0)
  end
  begin
     id 28
     name rhand
     direction -1 -4.48891e-011 3.1558e-026   
     length 0.498676   
     axis -2.01367e-014 -90 -90   XYZ
    dof rx rz
    limits (-90.0 90.0)
           (-45.0 45.0)
  end
  begin
     id 29
     name rfingers
     direction -1 -4.48972e-011 6.31161e-026   
     length 0.402045   
     axis -4.02734e-014 -90 -90   XYZ
    dof rx
    limits (0.0 90.0)
  end
  begin
     id 30
     name rthumb
     direction -0.707107 -6.34849e-011 0.707107   
     length 0.577259   
     axis -90 -45 -2.85299e-015   XYZ
    dof rx rz
    limits (-45.0 45.0)
           (-45.0 45.0)
  end
:hierarchy
  begin
    root lhipjoint rhipjoint lowerback
    lhipjoint lfemur
    lfemur ltibia
    ltibia lfoot
    lfoot ltoes
    rhipjoint rfemur
    rfemur rtibia
    rtibia rfoot
    rfoot rtoes
    lowerback upperback
    upperback thorax
    thorax lowerneck lclavicle rclavicle
    lowerneck upperneck
    upperneck head
    lclavicle lhumerus
    lhumerus lradius
    lradius lwrist
    lwrist lhand lthumb
    lhand lfingers
    rclavicle rhumerus
    rhumerus rradius
    rradius rwrist
    rwrist rhand rthumb
    rhand rfingers
  end

#!OML:ASF H:\Pregnant\Project 1\Capture day 1\Session 1\femalepreg.ASF
:FULLY-SPECIFIED
:DEGREES
46
root 4.29349 15.3253 29.6742 30.9149 -56.7158 -5.36635
lowerback -14.0957 -0.343562 -6.4338
upperback -8.02329 0.0443479 -0.797253
thorax -0.615056 0.104022 2.7937
lowerneck -29.8189 -3.15774 -1.87155
upperneck 26.9358 -5.95684 6.30965
head 14.5457 -1.81783 1.65218
rclavicle 2.68359e-014 -1.74931e-014
rhumerus -10.6118 39.9123 -70.2929
rradius 70.544
rwrist -47.8338
rhand -27.0977 -49.6321
rfingers 7.12502
rthumb -0.51447 -79.6112
lclavicle 2.68359e-014 -1.74931e-014
lhumerus -15.446 -31.8596 55.7445
lradius 74.7001
lwrist 60.926
lhand -35.2821 31.817
lfingers 7.12502
lthumb -8.41702 61.6293
rfemur -49.1392 33.4535 -0.331764
rtibia 42.0943
rfoot -20.9677 2.89883
rtoes -1.2866
lfemur -44.4167 -13.6609 -9.02579
ltibia 29.0198
lfoot -11.7052 0.0552008
ltoes -35.775
47
root 4.30898 15.3265 29.7085 31.0657 -57.4497 -5.48006
lowerback -14.1881 -0.307008 -6.65258
upperback -8.03592 0.12055 -0.898486
thorax -0.591001 0.144367 2.82053
lowerneck -29.7294 -3.12223 -1.86131
upperneck 26.926 -5.93317 6.36959
head 14.5249 -1.80076 1.68019
rclavicle -2.82274e-014 -1.59028e-014
rhumerus -10.9768 39.7527 -70.6208
rradius 70.5378
rwrist -47.7922
rhand -27.0956 -49.5976
rfingers 7.12502
rthumb -0.512448 -79.5767
lclavicle -2.82274e-014 -1.59028e-014
lhumerus -15.3442 -31.8107 55.6552
lradius 74.7908
lwrist 60.7398
lhand -35.3057 31.6693
lfingers 7.12502
lthumb -8.43981 61.4807
rfemur -49.2981 33.2839 -0.528527
rtibia 42.0407
rfoot -20.9213 3.45646
rtoes -0.222348
lfemur -44.2702 -13.498 -9.30372
ltibia 29.0797
lfoot -11.6346 0.563792
ltoes -35.8924
48
root 4.32355 15.3279 29.7419 31.2686 -58.1996 -5.65724
lowerback -14.296 -0.26236 -6.84285
upperback -8.04974 0.205391 -0.990649
thorax -0.560663 0.18798 2.84214
lowerneck -29.6235 -3.07632 -1.84345
upperneck 26.9151 -5.89608 6.42378
head 14.4989 -1.77848 1.70737
rclavicle -6.12257e-014 -1.27222e-014
rhumerus -11.3444 39.5745 -70.9549
rradius 70.5228
rwrist -47.7554
rhand -27.0851 -49.4597
rfingers 7.12502
rthumb -0.502244 -79.4388
lclavicle -6.12257e-014 -1.27222e-014
lhumerus -15.253 -31.7444 55.5745
lradius 74.8702
lwrist 60.5539
lhand -35.3178 31.524
lfingers 7.12502
lthumb -8.45144 61.3348
rfemur -49.4483 33.1117 -0.677035
rtibia 41.9698
rfoot -20.8385 4.02889
rtoes 0.898138
lfemur -44.1172 -13.3126 -9.55835
ltibia 29.1475
lfoot -11.5605 1.10256
ltoes -36.1206
49
root 4.33727 15.3295 29.7746 31.5215 -58.9605 -5.89897
lowerback -14.4137 -0.210954 -7.00402
upperback -8.0629 0.29679 -1.07423
thorax -0.52488 0.233835 2.85747
lowerneck -29.5244 -3.02007 -1.8027
upperneck 26.9204 -5.84976 6.45911
head 14.4793 -1.75221 1.72507
rclavicle 3.70733e-014 4.29375e-014
rhumerus -11.7098 39.3737 -71.2952
rradius 70.5005
rwrist -47.7215
rhand -27.0343 -49.2509
rfingers 7.12502
rthumb -0.453186 -79.2302
lclavicle 3.70733e-014 4.29375e-014
lhumerus -15.1697 -31.6623 55.5008
lradius 74.9369
lwrist 60.3644
lhand -35.3223 31.3772
lfingers 7.12502
lthumb -8.45583 61.1879
rfemur -49.5788 32.9257 -0.7646
rtibia 41.88
rfoot -20.7144 4.60425
rtoes 2.03288
lfemur -43.9536 -13.0816 -9.80406
ltibia 29.2231
lfoot -11.493 1.63247
ltoes -36.413
50
root 4.35038 15.3315 29.8066 31.8093 -59.7239 -6.20039
lowerback -14.5236 -0.159526 -7.1407
upperback -8.07292 0.385215 -1.1406
thorax -0.489406 0.27778 2.87689
lowerneck -29.4376 -2.95403 -1.74579
upperneck 26.945 -5.79158 6.47445
head 14.4686 -1.72149 1.73456
rclavicle -7.2954e-014 3.49861e-014
rhumerus -12.0684 39.1672 -71.6327
rradius 70.4791
rwrist -47.7015
rhand -26.9913 -49.0221
rfingers 7.12502
rthumb -0.411688 -79.0014
lclavicle -7.2954e-014 3.49861e-014
lhumerus -15.11 -31.5467 55.4539
lradius 74.9915
lwrist 60.1723
lhand -35.3073 31.2441
lfingers 7.12502
lthumb -8.44136 61.0554
rfemur -49.6632 32.7132 -0.772564
rtibia 41.7705
rfoot -20.56 5.16882
rtoes 3.07517
lfemur -43.7716 -12.8065 -10.0444
ltibia 29.3113
lfoot -11.4417 2.12185
ltoes -36.6412
